<?xml version="1.0" standalone="no"?>
<!DOCTYPE svg PUBLIC "-//W3C//DTD SVG 20010904//EN"
 "http://www.w3.org/TR/2001/REC-SVG-20010904/DTD/svg10.dtd">
<svg version="1.0" xmlns="http://www.w3.org/2000/svg"
 width="1024.000000pt" height="1024.000000pt" viewBox="0 0 1024.000000 1024.000000"
 preserveAspectRatio="xMidYMid meet">

<g transform="translate(0.000000,1024.000000) scale(0.100000,-0.100000)"
fill="#000000" stroke="none">
<path d="M5185 8954 c-108 -23 -255 -100 -364 -192 l-95 -79 -135 -22 c-165
-26 -361 -69 -496 -110 -479 -143 -1007 -437 -1380 -767 -169 -150 -828 -770
-856 -806 -63 -81 -68 -101 -75 -310 -6 -178 -9 -199 -34 -263 -31 -79 -104
-299 -119 -360 -9 -34 -22 -49 -87 -95 -153 -109 -276 -273 -327 -435 -54
-170 -59 -393 -13 -550 65 -217 194 -391 378 -508 54 -35 57 -39 68 -94 45
-230 121 -499 210 -748 66 -185 68 -193 74 -310 7 -137 23 -218 65 -309 55
-122 128 -207 235 -278 83 -54 171 -79 279 -80 l88 -1 102 -95 c365 -342 831
-624 1297 -787 110 -38 316 -97 385 -111 45 -8 56 -10 103 -19 26 -5 40 -17
67 -59 45 -70 154 -168 235 -210 235 -123 554 -110 768 31 69 46 170 146 197
197 15 28 29 39 60 47 705 182 1282 494 1738 938 160 156 424 469 700 829 172
226 182 253 192 549 4 111 10 225 14 254 l6 52 70 36 c183 93 319 233 413 421
67 136 85 220 86 390 0 117 -4 162 -22 233 -64 257 -237 478 -460 587 l-71 35
-21 95 c-35 157 -97 373 -172 600 l-71 214 2 137 c3 243 -54 395 -208 550
-137 138 -260 186 -452 177 l-103 -5 -150 126 c-284 238 -558 411 -899 565
-166 75 -481 183 -634 217 l-103 23 0 76 c0 102 -18 134 -95 176 -115 63 -243
79 -390 48z m155 -426 c0 -103 -4 -110 -150 -248 -153 -147 -153 -154 29 -335
l111 -110 0 -112 c0 -62 -2 -113 -5 -113 -3 0 -23 9 -44 19 -48 25 -116 78
-215 170 -120 112 -116 111 -411 111 -224 0 -254 -2 -292 -19 -88 -41 -143
-121 -243 -356 -85 -201 -143 -321 -186 -387 -61 -92 -153 -174 -244 -217
l-75 -36 -645 -3 -644 -3 24 27 c14 14 99 92 189 172 91 81 215 193 277 248
335 300 541 453 819 609 167 93 287 147 530 235 106 38 323 90 526 124 118 20
216 42 241 55 24 11 81 52 126 91 133 112 209 159 260 160 21 0 22 -3 22 -82z
m470 -310 c519 -140 1023 -432 1479 -855 l74 -68 -52 -103 c-29 -57 -56 -102
-61 -100 -5 2 -46 39 -92 84 -415 403 -845 660 -1333 798 -184 52 -211 64
-240 97 -44 53 -28 130 33 160 38 20 82 17 192 -13z m-65 -628 c3 -6 -1 -7 -9
-4 -18 7 -21 14 -7 14 6 0 13 -4 16 -10z m-78 -92 c-2 -18 -4 -6 -4 27 0 33 2
48 4 33 2 -15 2 -42 0 -60z m133 78 c0 -2 -7 -7 -16 -10 -8 -3 -12 -2 -9 4 6
10 25 14 25 6z m-1000 -62 c80 -82 247 -216 267 -213 11 1 21 -33 15 -54 -4
-15 -7 -13 -20 12 -8 17 -19 28 -24 25 -5 -3 -3 -13 6 -23 9 -10 16 -23 16
-29 0 -7 4 -12 8 -12 5 0 14 -12 20 -26 7 -15 17 -22 24 -18 7 4 8 3 4 -4 -4
-8 0 -12 11 -12 13 0 14 -3 5 -8 -9 -6 8 -28 59 -75 39 -37 75 -64 80 -61 5 3
9 0 9 -5 0 -6 7 -11 15 -11 8 0 15 -6 15 -12 0 -9 4 -8 10 2 8 13 10 12 10 -3
0 -10 4 -16 9 -12 5 3 12 1 16 -5 3 -5 17 -10 30 -10 13 0 26 -4 30 -9 14 -23
123 -44 227 -45 l108 -1 0 -280 c0 -214 4 -295 15 -344 33 -139 118 -245 243
-304 l67 -32 273 -3 273 -3 -3 -957 -3 -957 -24 -65 c-37 -103 -79 -170 -152
-242 -77 -76 -194 -139 -294 -158 -43 -8 -354 -10 -1085 -8 -1008 4 -1026 4
-1086 24 -212 73 -366 232 -421 435 -15 59 -17 170 -20 1302 -3 1007 -1 1237
9 1238 60 4 201 31 253 49 130 45 213 96 306 190 132 133 189 231 264 450 25
72 65 173 89 225 l45 95 128 0 129 0 44 -46z m3081 -203 c17 -46 20 -73 17
-151 -3 -86 -8 -103 -46 -186 -23 -50 -42 -102 -42 -115 0 -42 48 -206 96
-327 55 -140 106 -277 144 -388 l28 -82 -47 -6 c-25 -3 -79 -16 -119 -28 -40
-11 -74 -19 -77 -16 -3 2 -16 47 -29 100 -43 164 -83 277 -167 473 -44 105
-83 204 -86 220 -4 25 15 70 96 229 56 109 108 223 117 254 15 51 14 117 -2
170 -14 43 98 -97 117 -147z m-2681 -201 c0 -5 -2 -10 -4 -10 -3 0 -8 5 -11
10 -3 6 -1 10 4 10 6 0 11 -4 11 -10z m36 -51 c4 -8 1 -8 -14 0 -12 6 -24 16
-28 22 -4 8 -1 8 14 0 12 -6 24 -16 28 -22z m1104 -241 c0 -6 -6 -5 -15 2 -8
7 -15 14 -15 16 0 2 7 1 15 -2 8 -4 15 -11 15 -16z m41 -41 c-8 -8 -15 -7 -28
5 -15 16 -15 17 5 11 15 -3 22 -1 23 8 0 12 2 12 6 1 3 -8 0 -19 -6 -25z m-22
-300 c10 -6 62 -54 116 -104 l99 -93 -232 0 -232 0 0 230 0 229 116 -124 c64
-69 124 -131 133 -138z m119 187 c-4 -3 -12 5 -18 18 -12 22 -12 22 6 6 10
-10 15 -20 12 -24z m632 -38 c0 -2 -7 -7 -16 -10 -8 -3 -12 -2 -9 4 6 10 25
14 25 6z m-487 -76 c-5 -20 -15 -25 -26 -13 -5 4 18 30 30 33 0 0 -1 -9 -4
-20z m-3783 -21 c0 -6 -4 -7 -10 -4 -5 3 -10 11 -10 16 0 6 5 7 10 4 6 -3 10
-11 10 -16z m-480 -131 l-68 -143 -87 -3 c-80 -3 -86 -1 -81 16 7 20 25 199
26 245 l0 27 139 0 140 0 -69 -142z m4297 119 c11 4 14 2 11 -8 -7 -21 -32
-17 -35 6 -2 11 0 15 3 8 3 -7 12 -9 21 -6z m-3860 -39 c-3 -8 -6 -5 -6 6 -1
11 2 17 5 13 3 -3 4 -12 1 -19z m3907 -17 c11 -4 15 -10 10 -13 -5 -4 -18 0
-29 8 -20 15 -12 17 19 5z m42 -35 c17 -18 18 -25 2 -22 -22 3 -39 17 -33 27
8 12 14 11 31 -5z m50 -61 c1 -8 -2 -13 -7 -9 -5 3 -7 10 -4 15 4 5 -1 9 -10
9 -9 0 -13 5 -9 11 8 13 27 -3 30 -26z m39 -24 c3 -5 2 -12 -3 -15 -5 -3 -9 1
-9 9 0 17 3 19 12 6z m35 -56 c13 -14 19 -25 14 -25 -8 1 -50 50 -41 50 2 0
14 -11 27 -25z m43 -20 c-3 -9 -8 -14 -10 -11 -3 3 -2 9 2 15 9 16 15 13 8 -4z
m-4230 -20 c-3 -9 -8 -14 -10 -11 -3 3 -2 9 2 15 9 16 15 13 8 -4z m4277 -15
c0 -5 -2 -10 -4 -10 -3 0 -8 5 -11 10 -3 6 -1 10 4 10 6 0 11 -4 11 -10z
m-4264 -26 c-24 -17 -37 -18 -30 -1 2 7 15 13 27 14 21 2 21 1 3 -13z m24
-103 l0 -99 -39 -31 c-36 -29 -40 -30 -52 -13 -13 16 -13 16 5 2 14 -11 12 -4
-9 30 -35 56 -39 61 -32 33 3 -13 1 -26 -4 -29 -5 -3 -9 0 -9 6 0 6 -4 9 -10
5 -5 -3 -5 7 1 25 6 16 15 27 20 24 5 -3 6 2 3 10 -3 9 -2 16 4 16 5 0 12 14
16 31 4 20 10 28 18 23 7 -5 9 -2 6 8 -4 8 -2 21 3 29 6 10 9 8 9 -11 1 -25 1
-25 10 -2 6 12 18 22 30 22 11 0 20 5 20 10 0 6 2 10 5 10 3 0 5 -45 5 -99z
m4320 -5 c0 -3 -4 -8 -10 -11 -5 -3 -10 -1 -10 4 0 6 5 11 10 11 6 0 10 -2 10
-4z m-4420 -110 c0 -3 -4 -8 -10 -11 -5 -3 -10 -1 -10 4 0 6 5 11 10 11 6 0
10 -2 10 -4z m-286 -209 c76 -39 139 -77 139 -82 1 -6 -34 -35 -76 -65 l-77
-55 22 -18 c39 -31 140 -79 223 -108 l80 -27 6 -63 c12 -122 10 -219 -5 -225
-7 -3 -48 8 -90 24 l-76 30 -10 -37 c-5 -20 -16 -61 -23 -91 l-14 -55 40 -74
41 -74 -33 -26 c-19 -14 -81 -59 -139 -99 -126 -86 -128 -85 -117 51 6 83 5
89 -11 83 -9 -4 -49 -12 -87 -19 l-70 -12 -58 -87 c-46 -68 -63 -86 -77 -81
-23 9 -242 131 -266 148 -11 8 -18 16 -15 18 2 2 39 27 82 56 42 28 77 55 77
59 0 12 -183 111 -241 131 l-54 18 -3 146 c-1 81 1 147 6 147 12 0 134 -40
154 -51 12 -7 18 -4 21 9 3 9 13 46 22 82 l17 66 -36 65 c-20 36 -36 72 -36
80 0 14 148 124 233 173 l47 28 0 -100 0 -101 32 10 c18 5 50 9 71 9 37 0 39
2 99 95 34 52 62 95 62 95 1 0 64 -33 140 -73z m461 39 c0 -13 -3 -22 -7 -19
-5 2 -8 13 -8 24 0 10 3 19 8 19 4 0 7 -11 7 -24z m33 -40 c-2 -19 -5 -22 -15
-14 -10 8 -10 14 -2 24 16 20 19 18 17 -10z m4646 5 c4 -5 -3 -7 -14 -4 -23 6
-26 13 -6 13 8 0 17 -4 20 -9z m825 -111 c82 -29 199 -108 255 -172 202 -231
185 -580 -39 -804 -52 -52 -92 -81 -146 -107 -194 -93 -402 -81 -574 34 -122
82 -214 212 -245 349 -29 122 -9 293 47 404 75 151 224 271 388 313 75 19 235
10 314 -17z m-976 -75 c-3 -9 -8 -14 -10 -11 -3 3 -2 9 2 15 9 16 15 13 8 -4z
m-136 -587 c-2 -13 -4 -5 -4 17 -1 22 1 32 4 23 2 -10 2 -28 0 -40z m-4923
-690 c2 -7 23 -67 46 -133 49 -138 90 -232 223 -508 l96 -198 -104 -115 c-133
-147 -150 -182 -149 -294 0 -56 6 -98 17 -124 10 -22 16 -41 14 -43 -10 -9
-91 63 -117 103 -64 101 -63 198 2 337 l42 89 -18 71 c-10 40 -55 173 -99 297
-129 362 -146 414 -152 466 l-7 49 44 -3 c23 -1 63 1 88 7 64 13 70 13 74 -1z
m450 -94 c3 -8 2 -12 -4 -9 -6 3 -10 10 -10 16 0 14 7 11 14 -7z m4786 -26 c0
-18 -2 -20 -9 -8 -6 8 -7 18 -5 22 9 14 14 9 14 -14z m-4772 -23 c-3 -3 -9 2
-12 12 -6 14 -5 15 5 6 7 -7 10 -15 7 -18z m5314 -2 l69 -6 -3 -167 -3 -168
-37 -53 c-56 -80 -397 -517 -507 -649 -168 -201 -300 -329 -506 -491 -314
-246 -736 -463 -1130 -579 -77 -22 -171 -50 -208 -61 -83 -25 -125 -60 -177
-149 -127 -218 -421 -297 -623 -168 -87 56 -115 123 -82 191 31 63 55 71 210
77 143 5 166 11 213 54 53 48 70 141 38 204 -41 79 -115 107 -252 97 -105 -8
-144 3 -187 54 -55 66 -45 134 30 201 117 102 319 118 478 38 68 -35 114 -78
172 -161 88 -125 139 -147 298 -127 313 39 775 260 1125 538 196 156 459 436
609 647 133 188 212 337 291 553 l53 144 30 -6 c17 -3 61 -9 99 -13z m-5295
-35 c-3 -7 -5 -2 -5 12 0 14 2 19 5 13 2 -7 2 -19 0 -25z m4670 -120 c-3 -8
-6 -5 -6 6 -1 11 2 17 5 13 3 -3 4 -12 1 -19z m-4587 -24 c0 -8 -19 -13 -24
-6 -3 5 1 9 9 9 8 0 15 -2 15 -3z m4115 -194 c3 -5 1 -10 -4 -10 -6 0 -11 5
-11 10 0 6 2 10 4 10 3 0 8 -4 11 -10z m5 -35 c0 -12 -19 -12 -23 0 -4 9 -1
12 9 8 7 -3 14 -7 14 -8z m-113 -177 c-3 -8 -6 -5 -6 6 -1 11 2 17 5 13 3 -3
4 -12 1 -19z m13 -25 c0 -2 -8 -3 -17 -1 -10 1 -25 -2 -33 -7 -13 -7 -13 -6
-2 7 11 14 52 15 52 1z m-3732 -28 c-3 -3 -9 2 -12 12 -6 14 -5 15 5 6 7 -7
10 -15 7 -18z m3997 7 c-3 -3 -11 0 -18 7 -9 10 -8 11 6 5 10 -3 15 -9 12 -12z
m-315 -5 c0 -2 -14 -16 -32 -33 l-31 -29 23 33 c20 27 40 42 40 29z m76 -24
c-10 -10 -19 5 -10 18 6 11 8 11 12 0 2 -7 1 -15 -2 -18z m-3726 1 c0 -8 -19
-13 -24 -6 -3 5 1 9 9 9 8 0 15 -2 15 -3z m281 -58 c5 3 9 0 9 -6 0 -15 -23
-7 -26 8 -1 7 0 8 3 2 2 -5 9 -8 14 -4z m3289 -30 c0 -2 -7 -6 -15 -10 -8 -3
-15 -1 -15 4 0 6 7 10 15 10 8 0 15 -2 15 -4z m-45 -25 c-3 -6 -11 -11 -16
-11 -5 0 -4 6 3 14 14 16 24 13 13 -3z m-3140 -20 c3 -5 2 -12 -3 -15 -5 -3
-9 1 -9 9 0 17 3 19 12 6z m3140 -11 c6 0 1 -6 -9 -12 -15 -8 -21 -8 -24 0 -2
7 -9 9 -14 6 -6 -4 -8 -2 -5 4 4 5 15 9 25 7 9 -2 22 -4 27 -5z m-3360 -46
c21 -32 16 -30 -18 6 -16 17 -22 27 -13 24 8 -3 22 -17 31 -30z m3405 26 c0
-5 -4 -10 -10 -10 -5 0 -10 5 -10 10 0 6 5 10 10 10 6 0 10 -4 10 -10z m-133
-26 c-3 -3 -12 -4 -19 -1 -8 3 -5 6 6 6 11 1 17 -2 13 -5z m313 -3 c0 -6 -4
-13 -10 -16 -5 -3 -10 1 -10 9 0 9 5 16 10 16 6 0 10 -4 10 -9z m-3500 -55 c0
-20 -26 -15 -27 5 -1 12 3 16 13 12 8 -3 14 -11 14 -17z m3417 -8 c-3 -8 -6
-5 -6 6 -1 11 2 17 5 13 3 -3 4 -12 1 -19z m-3390 -24 c-3 -3 -12 -4 -19 -1
-8 3 -5 6 6 6 11 1 17 -2 13 -5z m3351 -22 c6 -18 -15 -14 -22 4 -4 10 -1 14
6 12 6 -2 14 -10 16 -16z m-3808 -88 c176 -206 510 -459 809 -613 226 -116
375 -170 675 -247 121 -30 174 -106 126 -182 -38 -61 -94 -66 -265 -22 -473
122 -1019 434 -1399 800 -107 102 -156 163 -156 190 0 15 126 149 140 150 3 0
35 -34 70 -76z m3177 40 c-3 -3 -12 -4 -19 -1 -8 3 -5 6 6 6 11 1 17 -2 13 -5z
m-2616 -21 c13 -16 12 -17 -3 -4 -17 13 -22 21 -14 21 2 0 10 -8 17 -17z m104
-83 c3 -6 -1 -7 -9 -4 -18 7 -21 14 -7 14 6 0 13 -4 16 -10z m2680 -158 c-3
-3 -11 0 -18 7 -9 10 -8 11 6 5 10 -3 15 -9 12 -12z m-720 -12 c-3 -5 -1 -10
6 -10 7 0 10 -3 6 -6 -9 -9 -28 6 -22 17 4 5 8 9 11 9 3 0 2 -4 -1 -10z m705
-5 c0 -2 -10 -9 -22 -15 -22 -11 -22 -10 -4 4 21 17 26 19 26 11z m-210 -95
c0 -5 -2 -10 -4 -10 -3 0 -8 5 -11 10 -3 6 -1 10 4 10 6 0 11 -4 11 -10z m-70
-34 c0 -2 -7 -7 -16 -10 -8 -3 -12 -2 -9 4 6 10 25 14 25 6z m-60 -20 c0 -2
-7 -7 -16 -10 -8 -3 -12 -2 -9 4 6 10 25 14 25 6z m-1605 -26 c3 -5 1 -10 -4
-10 -6 0 -11 5 -11 10 0 6 2 10 4 10 3 0 8 -4 11 -10z"/>
<path d="M3986 6403 c-81 -22 -146 -114 -146 -203 0 -28 4 -49 9 -46 5 3 9 -5
9 -19 0 -14 11 -40 26 -59 80 -106 227 -106 314 0 42 51 55 108 38 172 -17 65
-37 96 -87 129 -40 26 -118 39 -163 26z"/>
<path d="M4625 6290 l-160 -5 -3 -107 c-2 -100 -1 -108 18 -118 15 -8 149 -11
458 -9 l436 2 23 23 c19 19 23 34 23 85 0 73 -21 115 -65 128 -30 10 -437 10
-730 1z"/>
<path d="M4013 5719 c-66 -12 -129 -51 -116 -72 3 -6 1 -7 -5 -3 -14 8 -46
-50 -38 -70 3 -9 1 -12 -4 -9 -6 4 -10 -14 -10 -45 0 -31 4 -49 10 -45 5 3 7
0 4 -9 -12 -31 62 -126 87 -111 7 5 10 4 6 -2 -10 -16 39 -33 96 -33 43 0 61
6 104 35 88 59 116 126 89 216 -31 106 -122 166 -223 148z"/>
<path d="M4491 5597 c-23 -12 -24 -16 -22 -112 1 -80 5 -103 18 -112 13 -10
126 -13 483 -13 542 0 500 -9 502 107 1 77 -14 112 -58 132 -37 17 -890 15
-923 -2z"/>
<path d="M5646 5594 c-12 -12 -16 -37 -16 -108 0 -136 -20 -128 304 -124 l266
3 26 26 c56 57 38 161 -35 198 -37 20 -58 21 -285 21 -209 0 -247 -2 -260 -16z"/>
<path d="M3954 5015 c-41 -18 -106 -94 -100 -117 2 -10 0 -16 -5 -12 -15 9
-10 -80 6 -127 30 -83 94 -130 179 -131 67 -1 118 23 160 76 80 99 57 228 -54
304 -39 26 -134 30 -186 7z"/>
<path d="M4478 4899 c-15 -8 -18 -25 -18 -109 0 -99 0 -100 28 -114 20 -10 71
-14 191 -15 205 -2 211 0 211 94 0 81 -11 110 -52 135 -29 18 -50 20 -188 20
-87 0 -163 -5 -172 -11z"/>
<path d="M5071 4891 c-27 -20 -39 -74 -31 -140 4 -33 12 -49 33 -65 28 -21 35
-21 570 -21 607 1 577 -3 611 74 23 50 9 109 -35 145 l-31 26 -546 0 c-510 -1
-549 -2 -571 -19z"/>
<path d="M3955 4316 c-42 -19 -89 -71 -79 -88 4 -7 3 -10 -1 -5 -13 11 -35
-49 -35 -95 0 -21 9 -57 21 -80 73 -144 220 -169 332 -56 36 37 47 68 47 134
0 84 -48 160 -119 190 -42 18 -126 18 -166 0z"/>
<path d="M4472 4198 c-8 -8 -12 -47 -12 -110 0 -86 2 -98 19 -108 12 -6 112
-10 256 -10 273 0 287 3 305 71 15 56 4 115 -28 144 l-27 25 -250 0 c-182 0
-254 -3 -263 -12z"/>
<path d="M5199 4188 c-15 -28 -7 -181 11 -203 12 -14 64 -15 501 -13 l487 3
26 24 c57 54 55 149 -4 191 -27 19 -43 20 -519 20 l-490 0 -12 -22z"/>
<path d="M2620 6106 c0 -10 8 -16 22 -16 12 0 19 1 17 3 -2 1 -12 9 -21 16
-15 12 -18 11 -18 -3z"/>
<path d="M2005 5459 c-81 -23 -145 -116 -145 -210 1 -195 227 -291 369 -156
114 108 87 290 -54 356 -47 22 -116 26 -170 10z"/>
<path d="M7986 5436 c-85 -36 -142 -91 -184 -176 -24 -48 -27 -67 -27 -150 0
-85 3 -101 29 -153 36 -71 99 -130 174 -165 80 -38 192 -38 274 0 70 32 138
99 174 170 39 75 45 190 14 270 -28 76 -104 159 -177 194 -82 40 -195 44 -277
10z"/>
</g>
</svg>
